PathFileType	4	(X/Y/Z)	Patient4_TMGait_0pt2_03_left_01.trc.trc
DataRate	CameraRate	NumFrames	NumMarkers	Units	OrigDataRate	OrigDataStartFrame	OrigNumFrames
45.161290322581	45.161290322581	4	33	mm	45.161290322581	36	       141
Frame#	Time	Sacral			L.Shoulder			Chest			R.Shoulder			Neck			R.ASIS			L.ASIS			R.Thigh.Superior			R.Thigh.Lateral			R.Thigh.Inferior			R.Patella			L.Thigh.Superior			L.Thigh.Lateral			L.Thigh.Inferior			L.Patella			L.Shank.Superior			L.Shank.Lateral			L.Shank.Inferior			R.Shank.Superior			R.Shank.Lateral			R.Shank.Inferior			R.Heel			R.Midfoot.Superior			R.Midfoot.Lateral			R.Toe			L.Heel			L.Midfoot.Lateral			L.Midfoot.Superior			L.Toe			L.Elbow			L.Wrist			R.Elbow			R.Wrist			
		X1	Y1	Z1	X2	Y2	Z2	X3	Y3	Z3	X4	Y4	Z4	X5	Y5	Z5	X6	Y6	Z6	X7	Y7	Z7	X8	Y8	Z8	X9	Y9	Z9	X10	Y10	Z10	X11	Y11	Z11	X12	Y12	Z12	X13	Y13	Z13	X14	Y14	Z14	X15	Y15	Z15	X16	Y16	Z16	X17	Y17	Z17	X18	Y18	Z18	X19	Y19	Z19	X20	Y20	Z20	X21	Y21	Z21	X22	Y22	Z22	X23	Y23	Z23	X24	Y24	Z24	X25	Y25	Z25	X26	Y26	Z26	X27	Y27	Z27	X28	Y28	Z28	X29	Y29	Z29	X30	Y30	Z30	X31	Y31	Z31	X32	Y32	Z32	X33	Y33	Z33	

36	1.495000000000	789.650828319374	1010.477358882226	504.578936529881	913.060787911651	1423.260591076201	268.402392142750	1059.528479741507	1360.035857054226	394.580584904137	1031.498050689846	1448.520077555867	576.367814861591	939.073496362943	1492.979548843174	420.420140055110	1034.314594164445	937.516189620598	571.000071016221	966.885494128472	960.409774904760	305.720458285931	1034.372743269856	724.566092171497	545.560430963410	951.645847790565	627.757109389956	628.737524528434	998.918034688548	562.466370816999	538.510486098117	985.703947908378	472.116714595577	552.242404372359	1039.916660610071	762.297712600369	334.851251755722	963.942472487042	634.882541718505	277.037401607373	1062.943522035210	569.517374594975	332.441081453028	1071.763660158855	499.606404514609	338.015691191423	1048.943297350954	425.897334540724	328.617721729259	964.109357238480	308.270642363135	275.518813513568	1025.756371216301	197.275536568778	340.018007001435	938.774141020799	392.148326081865	570.528870748882	857.182063058003	308.192761697124	649.313089090628	868.855099243246	204.085237709561	589.025251721666	704.894848997128	56.959908700341	587.426446449639	881.780947157627	98.345070053289	604.512909803496	794.709564994304	44.660771999558	653.116417551679	1000.442578264573	39.174157495116	622.867606354792	906.052145829116	38.248890831058	375.537262768962	981.406721711627	35.238368582556	296.006067783895	1063.188089373611	97.850796988578	324.079591178011	1192.315868033867	49.283356821758	298.314788963532	798.811146154732	1090.281317350704	171.415928071660	801.999649050192	827.653114587750	183.629656672058	1286.155956741334	1242.949051722777	654.925696276367	1502.465596358762	1336.299764622412	544.980757380179	
37	1.517142857143	788.325642104417	1011.722260553231	496.801733011724	915.400802723292	1424.232253179262	261.962968924573	1059.923760423515	1361.169363337712	390.429356071806	1028.949255026903	1449.948322137790	571.657121921615	938.955052602536	1494.154159287738	414.345328557379	1032.030973624660	938.918595071843	566.788128194081	968.194361776674	960.933067154343	300.540623172262	1032.848560151726	725.936603648797	542.561710348123	949.446937918573	629.561107027394	625.548133112451	998.222291011931	563.598087678314	536.503446092265	985.401664952454	472.822226364240	550.974766041911	1039.455620860692	761.900010300222	330.670423289715	962.714909652712	634.763966178879	273.172482877640	1060.838096726896	568.965994341298	329.542494437828	1069.171039040547	499.087113998168	335.616650581153	1046.100001810966	425.517937415801	326.539620512932	961.068259306886	307.872091049588	273.823796736738	1021.923981520663	197.038538147123	339.275165708145	937.593249012667	393.450554764348	569.289613556525	854.708439886144	310.787724085227	648.064168214728	866.433644465054	205.891678181943	588.781513957343	701.259898291921	60.244039777363	587.472426948397	878.817330245232	98.918679073315	604.729763864960	790.920470660886	46.405150475681	653.091012655942	996.414723653564	38.619730432858	622.901349036970	901.790573091912	38.245556076990	375.526343338863	977.132782317831	35.255047654995	295.993584463950	1058.954547126006	97.697184175770	324.059488709631	1188.071748261673	49.085193815291	298.301721153450	807.936322929661	1090.111396343291	159.610619056943	817.321839351217	827.505947536863	169.003423394740	1279.678693910057	1237.337453029523	652.132200040694	1502.364328113099	1320.582581601996	546.387129089392	
38	1.539285714286	786.883708042530	1012.895083203377	488.819803484542	917.908138078163	1425.187919258199	255.493573062247	1060.202447118443	1362.286422196547	386.479743931116	1026.019796892590	1451.367823553076	567.046349566939	938.749717536179	1495.310044681612	408.222537714158	1029.490045018691	940.399669324591	562.675526503737	969.580717079441	961.377544437304	295.445207483443	1031.737218853026	727.510501704558	539.628379899074	947.884879047528	631.301852880786	622.276308542290	998.538767428825	564.835583704102	534.535633274329	986.347260327973	473.437629893921	549.848780417181	1039.010784838492	761.422649078964	326.571473704767	961.506594290584	634.597931904540	269.335097803155	1058.728598398287	568.368449205410	326.661206845576	1066.531434053174	498.509728592492	333.207461849782	1043.209482335635	425.090630346078	324.457286305172	957.979386183338	307.426987366068	272.124527278139	1018.050438563161	196.774482444065	338.527243756410	937.423023947101	394.712375475036	568.104093790967	852.980114753690	313.619887363712	646.821710226028	864.569792518213	207.884232237695	588.651720526333	697.858416553315	64.098911885149	587.571055336768	876.146465039542	99.565452642225	605.038074182703	787.271761289794	48.428826935791	653.111405421291	992.381092480778	38.107867711317	622.921867610496	897.453822752949	38.242873154561	375.535519614393	972.788575357120	35.251981326250	296.003629191961	1054.658754806647	97.526521489570	324.055948374522	1183.765150713004	48.827201754435	298.326098468320	817.758665826468	1089.876137451684	148.133520701167	833.204623613406	827.500382410807	155.135758223709	1271.671393225227	1230.456864810816	649.967067096838	1500.671055766252	1302.119776463315	549.031511490796	
39	1.561428571429	785.319984814790	1013.916274930468	480.628729278266	920.569562439765	1426.078932302720	249.036232040665	1060.339769923035	1363.310846010695	382.743877388619	1022.717789382449	1452.675490713717	562.551208785213	938.461083055150	1496.378072612258	402.095348714552	1026.679672492024	941.893775935441	558.637209580338	971.029231042798	961.699553543218	290.433598572963	1031.133150976820	729.265950785385	536.768857427694	947.084498786628	632.923215039526	618.925561718526	1000.030513150571	566.159121127857	532.628944738253	988.693146340620	473.941813538597	548.885273045607	1038.655636549676	760.889421547021	322.590870805247	960.502696813637	634.365821015965	265.521468987271	1056.812598833108	567.743207743416	323.825964553063	1064.072523772517	497.867544217537	330.812028144656	1040.464686938471	424.586822750480	322.396026287502	955.004823778144	306.941153729222	270.408653032104	1014.216146722484	196.467634129199	337.791042164807	938.414670871260	395.900507062042	566.975519784405	852.141968760683	316.696141581021	645.578752410946	863.355482043261	210.081497185094	588.624581643314	694.756820342345	68.649887224097	587.709667251776	873.794516129968	100.318484175846	605.427283680949	783.791192295373	50.831690197427	653.171467436584	988.317839823668	37.642384065838	622.932956068529	893.051917472214	38.240947106167	375.552523344095	968.383352684050	35.233864453210	296.022812339634	1050.307795055244	97.347700710350	324.062782488486	1179.405619838285	48.531149178520	298.372826618976	828.338146158824	1089.504854662707	137.103516463044	849.680840713993	827.536833959888	142.114621011258	1261.967365164531	1222.258475291691	648.421724723298	1496.998189724892	1280.684295701911	552.908734149025	
